<svg xmlns="http://www.w3.org/2000/svg" xmlns:xlink="http://www.w3.org/1999/xlink" width="500" zoomAndPan="magnify" viewBox="0 0 375 374.999991" height="500" preserveAspectRatio="xMidYMid meet" version="1.0"><path fill="#cbe2ff" d="M 187.5 353.980469 L 261.765625 335.230469 C 304.175781 300 331.199219 246.898438 331.199219 187.5 C 331.199219 95.875 266.96875 19.1875 181.054688 0.0742188 C 80.492188 3.515625 0 86.132812 0 187.5 C 0 239.574219 21.242188 286.667969 55.519531 320.652344 Z M 187.5 353.980469 " fill-opacity="1" fill-rule="nonzero"/><path fill="#bed8fb" d="M 327.320312 187.5 C 327.320312 248.949219 297.730469 303.515625 252.027344 337.71875 L 319.410156 320.726562 C 353.757812 286.667969 375 239.574219 375 187.5 C 375 83.933594 291.0625 0 187.5 0 C 179.441406 0 171.460938 0.511719 163.695312 1.464844 C 255.980469 13.183594 327.320312 91.992188 327.320312 187.5 Z M 327.320312 187.5 " fill-opacity="1" fill-rule="nonzero"/><path fill="#365e7d" d="M 234.082031 71.042969 C 234.082031 61.449219 226.316406 53.6875 216.722656 53.6875 L 156.957031 53.6875 C 134.910156 53.6875 117.039062 71.558594 117.039062 93.601562 L 117.039062 137.914062 L 257.8125 137.914062 L 257.8125 94.261719 C 257.8125 84.667969 250.046875 76.90625 240.453125 76.90625 L 239.867188 76.90625 C 236.71875 76.832031 234.082031 74.265625 234.082031 71.042969 Z M 234.082031 71.042969 " fill-opacity="1" fill-rule="nonzero"/><path fill="#2b4d66" d="M 240.527344 76.832031 L 239.941406 76.832031 C 236.71875 76.832031 234.082031 74.195312 234.082031 70.972656 C 234.082031 61.375 226.316406 53.613281 216.722656 53.613281 L 210.203125 53.613281 L 210.203125 137.839844 L 257.886719 137.839844 L 257.886719 94.1875 C 257.886719 84.59375 250.121094 76.832031 240.527344 76.832031 Z M 240.527344 76.832031 " fill-opacity="1" fill-rule="nonzero"/><path fill="#4a80aa" d="M 311.277344 272.753906 C 306.664062 268.210938 301.023438 264.695312 294.578125 262.71875 L 243.382812 246.53125 L 187.5 244.554688 L 131.542969 246.53125 L 80.347656 262.71875 C 63.0625 268.140625 51.269531 284.179688 51.269531 302.34375 L 51.269531 316.332031 C 84.082031 350.976562 130.003906 373.167969 181.054688 374.851562 C 238.257812 362.183594 285.863281 323.949219 311.277344 272.753906 Z M 311.277344 272.753906 " fill-opacity="1" fill-rule="nonzero"/><path fill="#407093" d="M 323.730469 316.332031 L 323.730469 302.34375 C 323.730469 289.527344 317.871094 277.734375 308.277344 269.96875 C 281.101562 325.339844 227.417969 365.40625 163.769531 373.460938 C 171.460938 374.414062 179.296875 374.925781 187.207031 375 C 194.824219 375 202.367188 374.558594 209.765625 373.679688 C 254.441406 368.40625 294.359375 347.386719 323.730469 316.332031 Z M 323.730469 316.332031 " fill-opacity="1" fill-rule="nonzero"/><path fill="#e4f6ff" d="M 191.746094 372.214844 C 203.101562 349.65625 232.617188 285.71875 224.195312 245.800781 L 187.5 231.519531 L 150.804688 245.800781 C 142.089844 286.960938 173.804688 353.6875 184.277344 374.195312 C 186.765625 373.535156 189.257812 372.875 191.746094 372.214844 Z M 191.746094 372.214844 " fill-opacity="1" fill-rule="nonzero"/><path fill="#e28086" d="M 211.082031 354.34375 L 196.214844 295.824219 L 178.785156 295.824219 L 163.917969 354.199219 L 182.300781 374.632812 C 186.988281 373.535156 191.527344 372.363281 196.070312 370.898438 Z M 211.082031 354.34375 " fill-opacity="1" fill-rule="nonzero"/><path fill="#dd636e" d="M 182.59375 374.925781 C 184.128906 375 185.667969 375 187.132812 375 C 188.890625 375 190.648438 375 192.40625 374.925781 L 201.855469 364.453125 C 194.382812 367.089844 186.765625 369.214844 178.929688 370.898438 Z M 182.59375 374.925781 " fill-opacity="1" fill-rule="nonzero"/><path fill="#ffddce" d="M 218.847656 240.378906 L 218.847656 207.347656 L 156.152344 207.347656 L 156.152344 240.378906 C 156.152344 257.664062 187.5 276.5625 187.5 276.5625 C 187.5 276.5625 218.847656 257.664062 218.847656 240.378906 Z M 218.847656 240.378906 " fill-opacity="1" fill-rule="nonzero"/><path fill="#ffddce" d="M 257.886719 132.054688 L 245.875 132.054688 C 239.207031 132.054688 233.789062 126.636719 233.789062 119.96875 L 233.789062 113.378906 C 233.789062 104.664062 225.292969 98.582031 217.089844 101.292969 C 197.898438 107.664062 177.101562 107.664062 157.910156 101.292969 C 149.632812 98.582031 141.210938 104.734375 141.210938 113.378906 L 141.210938 119.96875 C 141.210938 126.636719 135.792969 132.054688 129.125 132.054688 L 117.113281 132.054688 L 117.113281 151.757812 C 117.113281 156.8125 121.214844 160.914062 126.269531 160.914062 C 127.882812 160.914062 129.125 162.15625 129.273438 163.769531 C 131.175781 194.3125 156.519531 218.480469 187.574219 218.480469 C 218.628906 218.480469 243.898438 194.3125 245.875 163.769531 C 245.949219 162.15625 247.265625 160.914062 248.878906 160.914062 C 253.929688 160.914062 258.03125 156.8125 258.03125 151.757812 Z M 257.886719 132.054688 " fill-opacity="1" fill-rule="nonzero"/><path fill="#ffcbbe" d="M 245.875 132.054688 C 239.207031 132.054688 233.789062 126.636719 233.789062 119.96875 L 233.789062 113.378906 C 233.789062 104.664062 225.292969 98.582031 217.089844 101.292969 C 214.820312 102.027344 212.546875 102.683594 210.207031 103.269531 L 210.207031 168.457031 C 209.914062 189.625 198.265625 208.082031 181.128906 218.113281 C 183.253906 218.335938 185.375 218.480469 187.5 218.480469 C 218.480469 218.480469 243.824219 194.3125 245.800781 163.769531 C 245.875 162.15625 247.191406 160.914062 248.804688 160.914062 C 253.859375 160.914062 257.960938 156.8125 257.960938 151.757812 L 257.960938 132.054688 Z M 245.875 132.054688 " fill-opacity="1" fill-rule="nonzero"/><path fill="#f4fbff" d="M 156.152344 231.519531 L 131.542969 251.511719 L 157.324219 283.375 C 160.472656 286.449219 165.378906 286.597656 168.75 283.8125 L 188.160156 267.625 Z M 156.152344 231.519531 " fill-opacity="1" fill-rule="nonzero"/><path fill="#f4fbff" d="M 218.847656 231.519531 L 188.160156 267.625 L 206.394531 283.226562 C 209.765625 286.082031 214.671875 285.9375 217.894531 282.859375 L 243.457031 251.511719 Z M 218.847656 231.519531 " fill-opacity="1" fill-rule="nonzero"/><path fill="#365e7d" d="M 156.152344 231.519531 L 120.042969 249.242188 C 117.261719 250.5625 116.160156 253.929688 117.625 256.640625 L 124.65625 270.335938 C 126.488281 273.851562 125.828125 278.246094 122.972656 281.03125 C 121.507812 282.496094 119.96875 284.035156 118.578125 285.425781 C 116.160156 287.84375 115.28125 291.503906 116.308594 294.726562 C 124.878906 320.726562 165.894531 360.5 181.421875 374.925781 C 182.445312 374.925781 183.542969 375 184.570312 375 C 173.363281 353.101562 133.445312 269.75 156.152344 231.519531 Z M 156.152344 231.519531 " fill-opacity="1" fill-rule="nonzero"/><path fill="#365e7d" d="M 251.953125 281.03125 C 249.097656 278.171875 248.4375 273.851562 250.269531 270.335938 L 257.300781 256.640625 C 258.691406 253.929688 257.59375 250.5625 254.882812 249.242188 L 218.773438 231.519531 C 241.480469 269.824219 201.5625 353.027344 190.285156 375 C 191.308594 375 192.40625 374.925781 193.433594 374.925781 C 209.035156 360.496094 249.976562 320.800781 258.546875 294.800781 C 259.644531 291.503906 258.765625 287.914062 256.273438 285.496094 C 255.027344 284.03125 253.417969 282.496094 251.953125 281.03125 Z M 251.953125 281.03125 " fill-opacity="1" fill-rule="nonzero"/><path fill="#dd636e" d="M 188.160156 267.554688 L 169.042969 283.519531 L 178.785156 295.824219 L 196.214844 295.824219 L 205.957031 282.789062 Z M 188.160156 267.554688 " fill-opacity="1" fill-rule="nonzero"/></svg>